{
    "asset" : {
        "generator" : "Khronos glTF Blender I/O v1.6.16",
        "version" : "2.0"
    },
    "extensionsUsed" : [
        "KHR_materials_transmission"
    ],
    "scene" : 0,
    "scenes" : [
        {
            "name" : "Scene",
            "nodes" : [
                0,
                1
            ]
        }
    ],
    "nodes" : [
        {
            "mesh" : 0,
            "name" : "Icosphere",
            "rotation" : [
                0.1301117092370987,
                -0.640127420425415,
                0.5752032399177551,
                0.4923911988735199
            ],
            "scale" : [
                1.4823975563049316,
                1.4823977947235107,
                1.482397437095642
            ],
            "translation" : [
                -0.009004496037960052,
                0.11479289829730988,
                0.05337494611740112
            ]
        },
        {
            "mesh" : 1,
            "name" : "RockLP",
            "translation" : [
                0,
                -1.3887945413589478,
                0
            ]
        }
    ],
    "materials" : [
        {
            "alphaMode" : "BLEND",
            "doubleSided" : true,
            "extensions" : {
                "KHR_materials_transmission" : {
                    "transmissionFactor" : 0.6314049959182739
                }
            },
            "name" : "Material.004",
            "pbrMetallicRoughness" : {
                "baseColorFactor" : [
                    1,
                    0.21141783893108368,
                    0.9466139674186707,
                    1
                ],
                "roughnessFactor" : 0.3057851195335388
            }
        },
        {
            "doubleSided" : true,
            "name" : "Rock_MAT",
            "pbrMetallicRoughness" : {
                "baseColorTexture" : {
                    "index" : 0
                },
                "metallicFactor" : 0,
                "metallicRoughnessTexture" : {
                    "index" : 1
                }
            }
        }
    ],
    "meshes" : [
        {
            "name" : "Icosphere.001",
            "primitives" : [
                {
                    "attributes" : {
                        "POSITION" : 0,
                        "NORMAL" : 1,
                        "TEXCOORD_0" : 2
                    },
                    "indices" : 3,
                    "material" : 0
                }
            ]
        },
        {
            "name" : "Cube.002",
            "primitives" : [
                {
                    "attributes" : {
                        "POSITION" : 4,
                        "NORMAL" : 5,
                        "TEXCOORD_0" : 6
                    },
                    "indices" : 7,
                    "material" : 1
                }
            ]
        }
    ],
    "textures" : [
        {
            "sampler" : 0,
            "source" : 0
        },
        {
            "sampler" : 0,
            "source" : 1
        }
    ],
    "images" : [
        {
            "bufferView" : 8,
            "mimeType" : "image/png",
            "name" : "Base_color_2 1"
        },
        {
            "bufferView" : 9,
            "mimeType" : "image/png",
            "name" : "Base_color_2 1"
        }
    ],
    "accessors" : [
        {
            "bufferView" : 0,
            "componentType" : 5126,
            "count" : 5740,
            "max" : [
                0.8923455476760864,
                0.8481234312057495,
                0.8787028789520264
            ],
            "min" : [
                -0.759658932685852,
                -0.8128777742385864,
                -0.9027436375617981
            ],
            "type" : "VEC3"
        },
        {
            "bufferView" : 1,
            "componentType" : 5126,
            "count" : 5740,
            "type" : "VEC3"
        },
        {
            "bufferView" : 2,
            "componentType" : 5126,
            "count" : 5740,
            "type" : "VEC2"
        },
        {
            "bufferView" : 3,
            "componentType" : 5123,
            "count" : 23040,
            "type" : "SCALAR"
        },
        {
            "bufferView" : 4,
            "componentType" : 5126,
            "count" : 320,
            "max" : [
                1.2345997095108032,
                3.0053958892822266,
                1.1795306205749512
            ],
            "min" : [
                -1.219509482383728,
                -0.041490424424409866,
                -1.11737060546875
            ],
            "type" : "VEC3"
        },
        {
            "bufferView" : 5,
            "componentType" : 5126,
            "count" : 320,
            "type" : "VEC3"
        },
        {
            "bufferView" : 6,
            "componentType" : 5126,
            "count" : 320,
            "type" : "VEC2"
        },
        {
            "bufferView" : 7,
            "componentType" : 5123,
            "count" : 1704,
            "type" : "SCALAR"
        }
    ],
    "bufferViews" : [
        {
            "buffer" : 0,
            "byteLength" : 68880,
            "byteOffset" : 0
        },
        {
            "buffer" : 0,
            "byteLength" : 68880,
            "byteOffset" : 68880
        },
        {
            "buffer" : 0,
            "byteLength" : 45920,
            "byteOffset" : 137760
        },
        {
            "buffer" : 0,
            "byteLength" : 46080,
            "byteOffset" : 183680
        },
        {
            "buffer" : 0,
            "byteLength" : 3840,
            "byteOffset" : 229760
        },
        {
            "buffer" : 0,
            "byteLength" : 3840,
            "byteOffset" : 233600
        },
        {
            "buffer" : 0,
            "byteLength" : 2560,
            "byteOffset" : 237440
        },
        {
            "buffer" : 0,
            "byteLength" : 3408,
            "byteOffset" : 240000
        },
        {
            "buffer" : 0,
            "byteLength" : 1603315,
            "byteOffset" : 243408
        },
        {
            "buffer" : 0,
            "byteLength" : 15799,
            "byteOffset" : 1846724
        }
    ],
    "samplers" : [
        {
            "magFilter" : 9729,
            "minFilter" : 9987
        }
    ],
    "buffers" : [
        {
            "byteLength" : 1862524,
            "uri" : "data:application/octet-stream;base64,"
        }
    ]
}
