{
    "asset" : {
        "generator" : "Khronos glTF Blender I/O v1.6.16",
        "version" : "2.0"
    },
    "scene" : 0,
    "scenes" : [
        {
            "name" : "Scene",
            "nodes" : [
                0
            ]
        }
    ],
    "nodes" : [
        {
            "mesh" : 0,
            "name" : "SpaceOne"
        }
    ],
    "materials" : [
        {
            "doubleSided" : true,
            "emissiveFactor" : [
                1,
                1,
                1
            ],
            "emissiveTexture" : {
                "index" : 0
            },
            "name" : "SpaceOne",
            "normalTexture" : {
                "index" : 1,
                "scale" : 0
            },
            "pbrMetallicRoughness" : {
                "baseColorTexture" : {
                    "index" : 2
                },
                "metallicRoughnessTexture" : {
                    "index" : 3
                }
            }
        }
    ],
    "meshes" : [
        {
            "name" : "Plane",
            "primitives" : [
                {
                    "attributes" : {
                        "POSITION" : 0,
                        "NORMAL" : 1,
                        "TEXCOORD_0" : 2
                    },
                    "indices" : 3,
                    "material" : 0
                }
            ]
        }
    ],
    "textures" : [
        {
            "sampler" : 0,
            "source" : 0
        },
        {
            "sampler" : 0,
            "source" : 1
        },
        {
            "sampler" : 0,
            "source" : 2
        },
        {
            "sampler" : 0,
            "source" : 3
        }
    ],
    "images" : [
        {
            "bufferView" : 4,
            "mimeType" : "image/png",
            "name" : "SpaceOne_Emissive"
        },
        {
            "bufferView" : 5,
            "mimeType" : "image/png",
            "name" : "SpaceOne_Normal"
        },
        {
            "bufferView" : 6,
            "mimeType" : "image/png",
            "name" : "SpaceOne_BaseColor"
        },
        {
            "bufferView" : 7,
            "mimeType" : "image/png",
            "name" : "SpaceOne_Metallic-SpaceOne_Roughness"
        }
    ],
    "accessors" : [
        {
            "bufferView" : 0,
            "componentType" : 5126,
            "count" : 1854,
            "max" : [
                0.8803366422653198,
                0.3750303387641907,
                0.66139155626297
            ],
            "min" : [
                -0.8803366422653198,
                -0.12270079553127289,
                -1.1019634008407593
            ],
            "type" : "VEC3"
        },
        {
            "bufferView" : 1,
            "componentType" : 5126,
            "count" : 1854,
            "type" : "VEC3"
        },
        {
            "bufferView" : 2,
            "componentType" : 5126,
            "count" : 1854,
            "type" : "VEC2"
        },
        {
            "bufferView" : 3,
            "componentType" : 5123,
            "count" : 3342,
            "type" : "SCALAR"
        }
    ],
    "bufferViews" : [
        {
            "buffer" : 0,
            "byteLength" : 22248,
            "byteOffset" : 0
        },
        {
            "buffer" : 0,
            "byteLength" : 22248,
            "byteOffset" : 22248
        },
        {
            "buffer" : 0,
            "byteLength" : 14832,
            "byteOffset" : 44496
        },
        {
            "buffer" : 0,
            "byteLength" : 6684,
            "byteOffset" : 59328
        },
        {
            "buffer" : 0,
            "byteLength" : 15030,
            "byteOffset" : 66012
        },
        {
            "buffer" : 0,
            "byteLength" : 591442,
            "byteOffset" : 81044
        },
        {
            "buffer" : 0,
            "byteLength" : 501372,
            "byteOffset" : 672488
        },
        {
            "buffer" : 0,
            "byteLength" : 603388,
            "byteOffset" : 1173860
        }
    ],
    "samplers" : [
        {
            "magFilter" : 9729,
            "minFilter" : 9987
        }
    ],
    "buffers" : [
        {
            "byteLength" : 1777248,
            "uri" : "data:application/octet-stream;base64,"
        }
    ]
}
